<svg xmlns="http://www.w3.org/2000/svg" viewBox="0 0 1600 1000" width="1600" height="1000" role="img">
  <title>Wireframe placeholder: katalog produk dengan panel filter dan grid gambar</title>
  <rect width="1600" height="1000" fill="#f0efea"/>
  <g stroke="#dedcd4" stroke-width="2">
    <path d="M0 120h1600"/>
    <path d="M340 120v880"/>
  </g>
  <rect x="80" y="52" width="190" height="20" rx="10" fill="#0b0b0b"/>
  <g fill="#dedcd4">
    <rect x="80" y="184" width="140" height="14" rx="7"/>
    <rect x="80" y="240" width="180" height="14" rx="7"/>
    <rect x="80" y="288" width="150" height="14" rx="7"/>
    <rect x="80" y="336" width="170" height="14" rx="7"/>
    <rect x="80" y="424" width="140" height="14" rx="7"/>
    <rect x="80" y="480" width="160" height="14" rx="7"/>
    <rect x="80" y="528" width="120" height="14" rx="7"/>
  </g>
  <rect x="80" y="176" width="4" height="30" fill="#0b0b0b"/>
  <g>
    <rect x="400" y="176" width="340" height="300" fill="#0b0b0b"/>
    <rect x="400" y="500" width="220" height="16" rx="8" fill="#c4c1b6"/>
    <rect x="400" y="536" width="130" height="14" rx="7" fill="#dedcd4"/>
  </g>
  <g>
    <rect x="790" y="176" width="340" height="300" fill="#ffffff" stroke="#dedcd4" stroke-width="2"/>
    <circle cx="960" cy="326" r="80" fill="none" stroke="#c4c1b6" stroke-width="3"/>
    <rect x="790" y="500" width="190" height="16" rx="8" fill="#c4c1b6"/>
    <rect x="790" y="536" width="120" height="14" rx="7" fill="#dedcd4"/>
  </g>
  <g>
    <rect x="1180" y="176" width="340" height="300" fill="#ffffff" stroke="#dedcd4" stroke-width="2"/>
    <rect x="1260" y="256" width="180" height="140" fill="#c4c1b6"/>
    <rect x="1180" y="500" width="230" height="16" rx="8" fill="#c4c1b6"/>
    <rect x="1180" y="536" width="140" height="14" rx="7" fill="#dedcd4"/>
  </g>
  <g>
    <rect x="400" y="616" width="340" height="300" fill="#ffffff" stroke="#dedcd4" stroke-width="2"/>
    <path d="M470 856l90-130 90 130z" fill="#c4c1b6"/>
  </g>
  <g>
    <rect x="790" y="616" width="340" height="300" fill="#0b0b0b"/>
  </g>
  <g>
    <rect x="1180" y="616" width="340" height="300" fill="#ffffff" stroke="#dedcd4" stroke-width="2"/>
    <circle cx="1350" cy="766" r="60" fill="#c4c1b6"/>
  </g>
</svg>
