<svg xmlns="http://www.w3.org/2000/svg" viewBox="0 0 1600 1000" width="1600" height="1000" role="img">
  <title>Wireframe placeholder: halaman detail produk dua kolom</title>
  <rect width="1600" height="1000" fill="#f0efea"/>
  <path d="M0 120h1600" stroke="#dedcd4" stroke-width="2"/>
  <rect x="80" y="52" width="200" height="20" rx="10" fill="#0b0b0b"/>
  <rect x="80" y="184" width="740" height="740" fill="#0b0b0b"/>
  <circle cx="450" cy="554" r="180" fill="none" stroke="#faf9f6" stroke-width="3" opacity="0.4"/>
  <g fill="#dedcd4">
    <rect x="880" y="184" width="140" height="14" rx="7"/>
  </g>
  <rect x="880" y="232" width="560" height="44" rx="8" fill="#c4c1b6"/>
  <rect x="880" y="296" width="380" height="44" rx="8" fill="#c4c1b6"/>
  <g fill="#dedcd4">
    <rect x="880" y="396" width="620" height="14" rx="7"/>
    <rect x="880" y="436" width="560" height="14" rx="7"/>
    <rect x="880" y="476" width="600" height="14" rx="7"/>
    <rect x="880" y="516" width="420" height="14" rx="7"/>
  </g>
  <g stroke="#c4c1b6" stroke-width="2" fill="none">
    <rect x="880" y="596" width="88" height="60" rx="8"/>
    <rect x="988" y="596" width="88" height="60" rx="8"/>
    <rect x="1096" y="596" width="88" height="60" rx="8"/>
  </g>
  <rect x="880" y="596" width="88" height="60" rx="8" fill="#0b0b0b"/>
  <rect x="880" y="720" width="400" height="80" rx="40" fill="#0b0b0b"/>
  <path d="M880 880h620" stroke="#dedcd4" stroke-width="2"/>
</svg>
